<svg width="230" height="326" viewBox="0 0 230 326" fill="none" xmlns="http://www.w3.org/2000/svg">
<path d="M16.8771 136.403C16.8771 163.327 40.399 182.392 64.3496 189.95C88.03 197.422 111.925 197.645 134.12 185.314C150.03 176.475 164.695 160.38 169.924 142.717C175.408 124.194 170.561 103.986 158.176 89.4102C143.018 71.5716 121.914 65.2292 98.875 66.0736C56.9643 67.6095 17.479 95.7931 14 139.28" stroke="white" stroke-width="7" stroke-linecap="round"/>
<path fill-rule="evenodd" clip-rule="evenodd" d="M205.098 183.769C204.694 181.879 202.834 180.674 200.944 181.078C199.054 181.482 197.849 183.342 198.253 185.232C200.917 197.7 201.496 210.067 202.105 223.05L202.106 223.067C202.172 224.484 202.239 225.909 202.309 227.342C202.403 229.273 204.045 230.761 205.975 230.667C206.665 230.634 207.299 230.402 207.824 230.031C208.045 230.148 208.257 230.251 208.444 230.338C209.485 230.828 210.644 230.761 211.586 230.257C212.645 230.473 213.703 230.717 214.292 230.852L214.292 230.852L214.292 230.852L214.421 230.882C214.507 230.901 214.578 230.918 214.634 230.93C216.399 231.328 218.264 232.176 219.704 233.348C221.137 234.515 221.951 235.825 222.148 237.165C222.462 239.294 221.891 240.877 220.76 242.217C219.533 243.669 217.535 244.944 214.927 245.94C209.67 247.948 203.144 248.368 199.455 247.8C198.361 247.632 197.307 247.99 196.552 248.685C195.987 248.295 195.302 248.066 194.564 248.066C192.631 248.066 191.064 249.633 191.064 251.566C191.064 252.697 191.098 253.906 191.133 255.17L191.133 255.171V255.171C191.216 258.114 191.306 261.354 190.998 264.602C190.544 269.373 189.327 272.405 187.416 273.678L187.407 273.684C187.38 273.703 187.37 273.71 187.284 273.706C187.124 273.698 186.804 273.634 186.286 273.393C185.411 272.985 184.613 272.411 183.675 271.736L183.673 271.735C183.374 271.519 183.059 271.293 182.724 271.058C179.818 269.03 178.232 265.518 177.814 261.334C177.622 259.411 175.906 258.007 173.983 258.2C172.06 258.392 170.656 260.107 170.849 262.031C171.387 267.413 173.553 273.193 178.717 276.798C178.872 276.907 179.06 277.043 179.274 277.198C180.252 277.907 181.783 279.017 183.329 279.738C185.287 280.65 188.357 281.464 191.299 279.503C196.111 276.295 197.497 270.195 197.966 265.265C198.311 261.636 198.211 257.706 198.128 254.668C198.214 254.688 198.301 254.705 198.39 254.719C203.253 255.467 211.008 254.93 217.425 252.479C220.654 251.246 223.841 249.417 226.107 246.734C228.468 243.94 229.695 240.36 229.073 236.143C228.552 232.607 226.497 229.852 224.123 227.919C221.756 225.992 218.876 224.71 216.17 224.101C216.138 224.094 216.092 224.083 216.034 224.07L215.921 224.044C215.136 223.863 212.999 223.37 211.36 223.091C210.885 223.01 210.387 222.935 209.94 222.894C209.718 222.873 209.455 222.855 209.184 222.856C209.161 222.856 209.135 222.856 209.104 222.857L209.096 222.687C208.494 209.784 207.889 196.833 205.098 183.769ZM3.77316 237.005C5.70349 236.903 7.35069 238.386 7.45228 240.316C8.14593 253.495 10.24 266.021 13.541 278.858C14.0224 280.73 12.895 282.638 11.0229 283.119C10.1257 283.35 9.22031 283.211 8.46764 282.798C6.26817 288.157 6.86297 293.027 8.15994 299.837C8.49146 301.577 9.32069 304.815 10.654 307.37C11.3252 308.656 11.9927 309.51 12.5657 309.965C13.0381 310.34 13.297 310.351 13.5668 310.294C14.5607 310.087 15.6439 309.175 16.8106 306.827C17.3579 305.725 17.8312 304.493 18.2891 303.201C18.423 302.823 18.5617 302.421 18.7026 302.013L18.7027 302.013L18.7031 302.012L18.7032 302.011C19.0093 301.125 19.3254 300.209 19.6242 299.445C19.6241 299.446 19.6241 299.446 19.6243 299.445L19.6243 299.445L19.6244 299.445L19.6244 299.445C19.6263 299.44 19.6393 299.404 19.6635 299.328C19.6894 299.247 19.7208 299.142 19.7578 299.011C19.8325 298.747 19.916 298.43 20.0092 298.067L20.057 297.88L20.1119 297.665C20.2658 297.061 20.4415 296.373 20.604 295.818C20.7005 295.488 20.83 295.072 20.9867 294.699C21.0565 294.532 21.2014 294.203 21.4366 293.86C21.5522 293.691 21.7838 293.379 22.1528 293.076C22.5077 292.785 23.2758 292.273 24.3874 292.263C25.609 292.253 26.497 292.848 26.9927 293.369C27.4339 293.832 27.6478 294.305 27.7408 294.535C27.9318 295.008 27.9967 295.446 28.0238 295.651C28.0876 296.132 28.1042 296.701 28.1042 297.28C28.1042 303.129 28.525 307.782 31.2806 311.997C32.1654 313.35 33.8109 315.73 35.6181 317.374C36.5336 318.206 37.24 318.615 37.6822 318.749C37.903 318.817 37.92 318.797 37.9446 318.769C37.948 318.765 37.9516 318.761 37.9558 318.757C37.9583 318.754 37.9611 318.752 37.9641 318.75C39.7321 317.436 41.0871 315.008 42.1706 311.659C42.9262 309.323 43.4292 306.98 43.9234 304.677C44.143 303.653 44.3609 302.638 44.5985 301.635C45.6577 297.163 45.1499 292.603 44.577 287.46L44.5256 286.998C44.3122 285.077 45.6966 283.347 47.6177 283.133C49.0324 282.976 50.3437 283.685 51.022 284.837C52.0159 283.834 53.5643 283.494 54.9316 284.102C58.6002 285.732 63.7304 286.353 67.9822 285.356C72.1158 284.386 74.7955 282.124 75.3595 278.301C75.3828 278.143 75.3145 277.314 74.1809 275.867C73.1416 274.541 71.5805 273.196 69.8752 272.177C68.1216 271.129 66.573 270.638 65.5876 270.602C65.2827 270.59 65.1156 270.625 65.0445 270.647C65.0376 270.661 65.029 270.68 65.0187 270.706C64.3008 272.501 62.2639 273.374 60.4691 272.656C58.6744 271.938 57.8014 269.901 58.5193 268.106C59.1439 266.545 60.2118 265.304 61.6436 264.52C63.0195 263.767 64.5052 263.557 65.8468 263.607C68.461 263.703 71.1803 264.802 73.4653 266.168C75.7988 267.562 78.0473 269.452 79.6911 271.55C81.2405 273.528 82.7287 276.313 82.2845 279.323C81.1704 286.874 75.5201 290.778 69.5802 292.171C63.7586 293.536 57.0719 292.713 52.0887 290.499C52.0357 290.475 51.9835 290.45 51.9323 290.425C52.306 294.437 52.455 298.836 51.41 303.248C51.2363 303.982 51.0537 304.831 50.8552 305.755C50.3333 308.183 49.7014 311.123 48.8308 313.814C47.6212 317.553 45.7011 321.722 42.1384 324.369C40.036 325.931 37.6896 326.069 35.6431 325.446C33.7692 324.875 32.156 323.687 30.9083 322.552C28.389 320.261 26.3335 317.222 25.4218 315.827C24.2736 314.071 23.4283 312.279 22.8067 310.474C21.371 313.19 19.0135 316.31 14.9944 317.147C12.3034 317.708 9.97718 316.847 8.21492 315.449C6.55324 314.13 5.33634 312.31 4.44821 310.608C2.6629 307.187 1.67352 303.194 1.28357 301.146C-0.161329 293.561 -1.21632 286.38 2.89126 278.164C3.45007 277.047 4.52616 276.359 5.68427 276.245C2.89968 264.512 1.10392 252.881 0.461956 240.684C0.36036 238.754 1.84284 237.107 3.77316 237.005Z" fill="white"/>
<path fill-rule="evenodd" clip-rule="evenodd" d="M150.448 3.58333C150.494 1.65088 148.965 0.0470223 147.033 0.0010116C145.1 -0.0449991 143.496 1.48426 143.45 3.41671C143.387 6.09388 143.265 8.79898 143.093 11.516C140.083 11.7692 136.633 12.1154 133.275 13.1672C133.514 10.6795 133.734 8.06361 133.734 5.39954C133.734 3.46654 132.167 1.89954 130.234 1.89954C128.301 1.89954 126.734 3.46654 126.734 5.39954C126.734 8.13626 126.468 10.8655 126.181 13.7932L126.173 13.8677C126.046 15.1646 125.915 16.5016 125.809 17.8667C125.578 18.4964 125.53 19.1854 125.679 19.8466C125.626 20.8459 125.594 21.8569 125.594 22.8751V30.8531C125.594 32.7861 127.161 34.3531 129.094 34.3531C131.027 34.3531 132.594 32.7861 132.594 30.8531V22.8751C132.594 22.2404 132.608 21.6061 132.634 20.9698C135.386 19.4859 138.708 18.9641 142.538 18.5979C142.088 23.4408 141.502 28.2773 140.825 33.0174C140.552 34.931 141.882 36.7038 143.795 36.9772C145.709 37.2506 147.482 35.9209 147.755 34.0074C149.171 24.0961 150.208 13.6856 150.448 3.58333ZM65.776 3.09716C67.677 2.74697 69.5019 4.00416 69.8521 5.90518C70.424 9.00958 70.0022 12.0833 69.5077 14.705C69.3371 15.6094 69.164 16.4398 69.0008 17.2229L69.0008 17.223C68.6499 18.907 68.3446 20.3721 68.2072 21.8834C67.8435 25.8843 67.8433 29.9367 68.3597 33.8096C68.6152 35.7256 67.269 37.486 65.353 37.7415C63.4369 37.997 61.6766 36.6508 61.4211 34.7348C60.9111 30.9098 60.8448 27.0152 61.084 23.2206C61.0026 23.2313 60.9217 23.2418 60.8413 23.2521C60.358 23.3139 59.9105 23.3669 59.4832 23.4175L59.4816 23.4176L59.4814 23.4177C58.6601 23.5148 57.9131 23.6032 57.1285 23.729C54.8475 24.0947 53.2989 24.6446 52.1202 25.7779L52.1125 25.7853C51.8635 28.6574 51.6747 31.461 51.6747 34.2722C51.6747 36.2052 50.1077 37.7722 48.1747 37.7722C46.2417 37.7722 44.6747 36.2052 44.6747 34.2722C44.6747 30.0217 45.0679 25.8418 45.4433 21.8505L45.4433 21.8504L45.4499 21.7811C45.8323 17.7154 46.1943 13.8421 46.1943 9.95837C46.1943 8.02538 47.7613 6.45837 49.6943 6.45837C51.6273 6.45837 53.1943 8.02538 53.1943 9.95837C53.1943 12.5146 53.0515 15.0468 52.8559 17.5289C53.9441 17.1938 55.0158 16.9783 56.0204 16.8173C56.9453 16.669 57.9399 16.5509 58.8418 16.4438C59.2341 16.3972 59.609 16.3527 59.9529 16.3087C60.7387 16.2082 61.451 16.1014 62.1086 15.9671C62.1489 15.7723 62.189 15.5796 62.2285 15.3893L62.2333 15.3664L62.2339 15.3634C62.3778 14.6713 62.5149 14.0124 62.629 13.4073C63.0925 10.9501 63.2939 8.94269 62.9679 7.17331C62.6178 5.2723 63.8749 3.44734 65.776 3.09716ZM35.0181 7.98079C36.9495 8.05804 38.4526 9.68642 38.3754 11.6179C38.362 11.9513 38.3494 12.3009 38.3362 12.6645C38.2079 16.2034 38.0313 21.0738 36.727 25.2874C35.9898 27.669 34.8281 30.0847 32.9178 32.0301C30.9532 34.0307 28.3661 35.3579 25.1393 35.7612C22.062 36.1459 19.3262 35.5561 17.0472 34.1265C14.8186 32.7285 13.2766 30.6864 12.2332 28.5533C10.1852 24.3666 9.74851 19.2191 10.1194 15.3251C10.3026 13.4008 12.0111 11.9894 13.9354 12.1727C15.8597 12.356 17.2711 14.0645 17.0878 15.9888C16.7979 19.0326 17.2061 22.789 18.5212 25.4775C19.1594 26.7821 19.9284 27.6706 20.767 28.1966C21.5551 28.691 22.6426 29.0188 24.2711 28.8153C25.9845 28.6011 27.1014 27.9624 27.9233 27.1254C28.7994 26.2333 29.5069 24.9398 30.0401 23.2174C31.0526 19.9466 31.2022 16.0174 31.343 12.3184C31.3555 11.9896 31.368 11.6626 31.381 11.3381C31.4582 9.40665 33.0866 7.90353 35.0181 7.98079ZM83.9398 21.7892C85.8579 21.5495 87.2184 19.8002 86.9787 17.8821C86.7389 15.9641 84.9896 14.6035 83.0716 14.8433C82.9287 14.8611 82.7455 14.8808 82.5343 14.9036L82.5342 14.9036C81.8415 14.9781 80.8477 15.085 79.9881 15.2653C78.7787 15.5191 77.1964 16.0186 75.8457 17.2343C74.4089 18.5274 74.2924 20.7405 75.5855 22.1772C76.8786 23.614 79.0916 23.7305 80.5284 22.4374C80.5634 22.4059 80.7615 22.2555 81.4255 22.1162C81.9211 22.0122 82.3578 21.9655 82.9262 21.9047C83.2201 21.8733 83.5492 21.8381 83.9398 21.7892ZM108.13 6.62601C109.197 5.29532 111.105 4.91033 112.622 5.79544C116.175 7.86798 118.803 10.6592 120.092 14.1906C121.376 17.7116 121.17 21.534 119.875 25.3844C117.332 32.9388 109.399 34.6893 103.378 32.8495C100.065 31.8374 96.9743 29.6627 95.0283 26.7273C93.0298 23.7127 92.2115 19.8046 93.8324 15.8C96.0264 10.3797 101.912 6.18839 108.13 6.62601ZM111.176 13.3173C110.416 13.7865 109.476 13.9661 108.538 13.7452C105.461 13.0213 101.651 15.1397 100.321 18.4264C99.6951 19.9728 99.9379 21.4645 100.863 22.8595C101.84 24.3335 103.534 25.5779 105.423 26.1551C109.213 27.3131 112.323 25.8775 113.24 23.1517C114.164 20.4064 114.126 18.2642 113.515 16.5896C113.107 15.4697 112.371 14.3628 111.176 13.3173Z" fill="white"/>
<path d="M65.0208 148.86C58.3182 145.987 54.3056 138.354 53.726 131.333C52.6383 118.16 61.5381 107.751 72.1044 101.27C81.2124 95.6842 93.5932 93.5852 102.824 99.9316C112.78 106.776 117.53 116.836 121.544 127.731C122.355 129.933 122.588 129.891 122.396 127.779C122.072 124.221 122.032 120.901 122.323 117.312C123.161 106.973 127.102 94.6267 136.904 89.5375C158.016 78.5754 177.575 105.519 175.437 124.761" stroke="white" stroke-width="7" stroke-linecap="round"/>
<path d="M95.7223 169.096C101.684 168.012 107.578 166.354 113.486 165.005C120.014 163.514 126.826 161.417 133.512 160.86" stroke="white" stroke-width="7" stroke-linecap="round"/>
<path d="M63.3867 115.634C65.396 116.973 65.8963 119.771 66.6166 121.932C67.8008 125.485 68.9851 129.038 70.1694 132.59" stroke="white" stroke-width="7" stroke-linecap="round"/>
<path d="M134.12 107.882L136.058 122.416" stroke="white" stroke-width="7" stroke-linecap="round"/>
</svg>
