<svg xmlns="http://www.w3.org/2000/svg" xmlns:xlink="http://www.w3.org/1999/xlink" viewBox="0,0,256,256" width="48px" height="48px" fill-rule="nonzero"><g fill="#ffffff" fill-rule="nonzero" stroke="none" stroke-width="1" stroke-linecap="butt" stroke-linejoin="miter" stroke-miterlimit="10" stroke-dasharray="" stroke-dashoffset="0" font-family="none" font-weight="none" font-size="none" text-anchor="none" style="mix-blend-mode: normal"><g transform="scale(10.66667,10.66667)"><path d="M6,3c-1.64497,0 -3,1.35503 -3,3v9.01953c0,1.58404 0.76332,2.98642 1.92578,3.90039l-0.03516,-0.00195c0,0 2.46417,1.84664 3.57617,2.68164c0.346,0.26 0.76817,0.40039 1.20117,0.40039h10.33203c0.53,0 1.03906,-0.21094 1.41406,-0.58594c0.375,-0.375 0.58594,-0.88406 0.58594,-1.41406v-10.08789c0,-0.579 -0.2505,-1.12977 -0.6875,-1.50977c-1.49841,-1.30197 -4.56642,-3.96582 -5.1543,-4.47656c-0.0139,-0.01447 -0.0229,-0.03266 -0.03711,-0.04687c-0.0848,-0.0848 -0.18203,-0.15318 -0.27539,-0.22656c-0.00739,-0.00642 -0.17383,-0.15039 -0.17383,-0.15039v0.00977c-0.49112,-0.33014 -1.07162,-0.51172 -1.67187,-0.51172zM6,5h8c0.26459,0 0.51934,0.10527 0.70703,0.29297c0.1877,0.1877 0.29297,0.44244 0.29297,0.70703v1.83203c-0.01785,0.10799 -0.01785,0.21818 0,0.32617v6.8418c-0.0051,0.36064 0.18438,0.69608 0.49587,0.87789c0.3115,0.18181 0.69676,0.18181 1.00825,0c0.3115,-0.18181 0.50097,-0.51725 0.49587,-0.87789v-6h1v8c0,0.26459 -0.10527,0.51934 -0.29297,0.70703c-0.1877,0.1877 -0.44244,0.29297 -0.70703,0.29297h-1.5h-1h-6.51953c-1.65751,0 -2.98047,-1.32296 -2.98047,-2.98047v-9.01953c0,-0.56503 0.43497,-1 1,-1zM8,7c-0.36064,-0.0051 -0.69608,0.18438 -0.87789,0.49587c-0.18181,0.3115 -0.18181,0.69676 0,1.00825c0.18181,0.3115 0.51725,0.50097 0.87789,0.49587h4c0.36064,0.0051 0.69608,-0.18438 0.87789,-0.49587c0.18181,-0.3115 0.18181,-0.69676 0,-1.00825c-0.18181,-0.3115 -0.51725,-0.50097 -0.87789,-0.49587zM8,10.5c-0.36064,-0.0051 -0.69608,0.18438 -0.87789,0.49587c-0.18181,0.3115 -0.18181,0.69676 0,1.00825c0.18181,0.3115 0.51725,0.50097 0.87789,0.49587h4c0.36064,0.0051 0.69608,-0.18438 0.87789,-0.49587c0.18181,-0.3115 0.18181,-0.69676 0,-1.00825c-0.18181,-0.3115 -0.51725,-0.50097 -0.87789,-0.49587zM8,14c-0.36064,-0.0051 -0.69608,0.18438 -0.87789,0.49587c-0.18181,0.3115 -0.18181,0.69676 0,1.00825c0.18181,0.3115 0.51725,0.50097 0.87789,0.49587h4c0.36064,0.0051 0.69608,-0.18438 0.87789,-0.49587c0.18181,-0.3115 0.18181,-0.69676 0,-1.00825c-0.18181,-0.3115 -0.51725,-0.50097 -0.87789,-0.49587z"></path></g></g></svg>