<svg width="24" height="24" viewBox="0 0 24 24" fill="none" xmlns="http://www.w3.org/2000/svg">
<g clip-path="url(#clip0_403_3058)">
<path d="M7 0H4C2.93913 0 1.92172 0.421427 1.17157 1.17157C0.421427 1.92172 0 2.93913 0 4L0 7C0 8.06087 0.421427 9.07828 1.17157 9.82843C1.92172 10.5786 2.93913 11 4 11H7C8.06087 11 9.07828 10.5786 9.82843 9.82843C10.5786 9.07828 11 8.06087 11 7V4C11 2.93913 10.5786 1.92172 9.82843 1.17157C9.07828 0.421427 8.06087 0 7 0V0ZM9 7C9 7.53043 8.78929 8.03914 8.41421 8.41421C8.03914 8.78929 7.53043 9 7 9H4C3.46957 9 2.96086 8.78929 2.58579 8.41421C2.21071 8.03914 2 7.53043 2 7V4C2 3.46957 2.21071 2.96086 2.58579 2.58579C2.96086 2.21071 3.46957 2 4 2H7C7.53043 2 8.03914 2.21071 8.41421 2.58579C8.78929 2.96086 9 3.46957 9 4V7Z" fill="white"/>
<path d="M7 13H4C2.93913 13 1.92172 13.4214 1.17157 14.1716C0.421427 14.9217 0 15.9391 0 17L0 20C0 21.0609 0.421427 22.0783 1.17157 22.8284C1.92172 23.5786 2.93913 24 4 24H7C8.06087 24 9.07828 23.5786 9.82843 22.8284C10.5786 22.0783 11 21.0609 11 20V17C11 15.9391 10.5786 14.9217 9.82843 14.1716C9.07828 13.4214 8.06087 13 7 13ZM9 20C9 20.5304 8.78929 21.0392 8.41421 21.4142C8.03914 21.7893 7.53043 22 7 22H4C3.46957 22 2.96086 21.7893 2.58579 21.4142C2.21071 21.0392 2 20.5304 2 20V17C2 16.4696 2.21071 15.9609 2.58579 15.5858C2.96086 15.2107 3.46957 15 4 15H7C7.53043 15 8.03914 15.2107 8.41421 15.5858C8.78929 15.9609 9 16.4696 9 17V20Z" fill="white"/>
<path d="M19.9999 13H16.9999C15.939 13 14.9216 13.4214 14.1714 14.1716C13.4213 14.9217 12.9999 15.9391 12.9999 17V20C12.9999 21.0609 13.4213 22.0783 14.1714 22.8284C14.9216 23.5786 15.939 24 16.9999 24H19.9999C21.0607 24 22.0781 23.5786 22.8283 22.8284C23.5784 22.0783 23.9999 21.0609 23.9999 20V17C23.9999 15.9391 23.5784 14.9217 22.8283 14.1716C22.0781 13.4214 21.0607 13 19.9999 13ZM21.9999 20C21.9999 20.5304 21.7892 21.0392 21.4141 21.4142C21.039 21.7893 20.5303 22 19.9999 22H16.9999C16.4694 22 15.9607 21.7893 15.5857 21.4142C15.2106 21.0392 14.9999 20.5304 14.9999 20V17C14.9999 16.4696 15.2106 15.9609 15.5857 15.5858C15.9607 15.2107 16.4694 15 16.9999 15H19.9999C20.5303 15 21.039 15.2107 21.4141 15.5858C21.7892 15.9609 21.9999 16.4696 21.9999 17V20Z" fill="white"/>
<path d="M16.3847 17.7669C15.9236 18.0128 16.6088 17.6895 16.6787 17.6539C16.9775 17.5016 18.9311 16.2868 19.1966 16.508C19.2966 16.5914 18.7973 17.5213 18.7518 17.6162C18.4515 18.2424 18.0292 17.7103 17.621 17.4051C17.0879 17.0065 16.3963 16.6136 15.9625 16.1009C15.8639 15.9844 16.8436 16.0016 16.9727 16.0105C17.5263 16.0486 18.0091 16.4364 18.5558 16.5457" stroke="white" stroke-width="3" stroke-linecap="round"/>
<path d="M17.7417 19.8023C18.4936 20.5856 21.1726 20.4015 20.2444 18.9429C19.9357 18.4577 20.0484 17.784 20.0484 17.1638C20.0484 16.7333 19.9544 16.4235 19.8675 16.0179C19.8214 15.8028 20.6121 15.6291 20.7797 15.6033C21.1008 15.5539 21.3729 17.3229 21.4355 17.6915C21.5626 18.4395 21.5411 19.1821 21.5411 19.938C21.5411 21.1287 20.0988 21.1592 19.2041 21.1592C17.6064 21.1592 16.6526 21.0145 16.0455 19.463C15.8125 18.8677 15.5706 18.6764 15.5706 18.0383" stroke="white" stroke-width="3" stroke-linecap="round"/>
<path d="M6.75044 6.5043C6.27576 5.73834 5.21646 4.50782 5.31812 3.50396C5.36859 3.00553 5.81175 3.35756 5.93628 3.56427C7.00335 5.33562 4.56301 5.68271 4.49642 4.48397C4.45537 3.74513 5.65493 3.78401 4.68488 3.36827C4.39119 3.2424 3.91826 2.8858 3.59179 2.8858C3.29761 2.8858 3.26752 3.96929 3.25256 4.1372C3.19164 4.82089 3.22241 5.51712 3.22241 6.20275C3.22241 6.75874 2.97411 8.00752 3.36564 8.46431C3.62921 8.77181 5.04929 8.5397 5.42366 8.5397C5.90867 8.5397 6.40189 8.5666 6.88613 8.5397C7.09669 8.528 7.45115 8.09275 7.70029 7.99692C8.33104 7.75433 8.73739 7.32799 8.7783 6.63245C8.84817 5.44466 8.73703 4.50333 8.10737 3.48889C7.46119 2.44781 6.72806 2.86736 6.2152 3.87335C5.84327 4.60292 5.66112 5.47717 5.53673 6.28568C5.47907 6.66046 5.56672 6.97203 5.3935 7.31846" stroke="white" stroke-width="3" stroke-linecap="round"/>
<path d="M2.67966 19.938C2.67966 20.9067 2.91947 20.9399 3.76521 21.3627C4.64036 21.8003 5.90989 21.5663 6.856 21.5663C7.48955 21.5663 8.14151 21.6517 8.25063 20.8878C8.3579 20.1369 8.37879 19.4194 8.37879 18.6564C8.37879 17.0496 8.36086 15.5958 6.34338 15.5958C5.50705 15.5958 4.62857 15.4601 3.76521 15.4601C2.92604 15.4601 2.27922 16.6867 2.00119 17.3899C1.55456 18.5197 1.99747 19.2354 3.03397 19.7344C4.05635 20.2267 4.83797 20.1925 5.63476 19.365C6.07075 18.9123 6.69363 17.4955 5.66492 17.4955C4.68333 17.4955 3.73531 17.3691 3.90844 18.581C4.04426 19.5318 5.18715 19.5309 5.90615 19.5309C6.42999 19.5309 6.93932 19.5595 7.09724 18.9278C7.25734 18.2874 7.49308 16.7801 6.66 16.6135C5.34075 16.3496 3.93543 16.2762 3.44859 17.7367C2.67432 20.0595 5.57643 20.994 7.29324 21.5663" stroke="white" stroke-width="3" stroke-linecap="round"/>
<path d="M20 0H17C15.9391 0 14.9217 0.421428 14.1716 1.17157C13.4214 1.92172 13 2.93914 13 4.00001V7.00001C13 8.06088 13.4214 9.07829 14.1716 9.82844C14.9217 10.5786 15.9391 11 17 11H20C21.0609 11 22.0783 10.5786 22.8284 9.82844C23.5786 9.07829 24 8.06088 24 7.00001V4.00001C24 2.93914 23.5786 1.92172 22.8284 1.17157C22.0783 0.421428 21.0609 0 20 0V0ZM22 7.00001C22 7.53044 21.7893 8.03915 21.4142 8.41423C21.0391 8.7893 20.5304 9.00001 20 9.00001H17C16.4696 9.00001 15.9609 8.7893 15.5858 8.41423C15.2107 8.03915 15 7.53044 15 7.00001V4.00001C15 3.46957 15.2107 2.96086 15.5858 2.58579C15.9609 2.21072 16.4696 2 17 2H20C20.5304 2 21.0391 2.21072 21.4142 2.58579C21.7893 2.96086 22 3.46957 22 4.00001V7.00001Z" fill="white"/>
<path d="M15.6797 6.93797C15.6797 7.90671 15.9195 7.93988 16.7652 8.36275C17.6404 8.80032 18.9099 8.56629 19.856 8.56629C20.4895 8.56629 21.1415 8.65167 21.2506 7.88782C21.3579 7.13691 21.3788 6.41939 21.3788 5.65642C21.3788 4.04955 21.3609 2.59578 19.3434 2.59578C18.5071 2.59578 17.6286 2.46008 16.7652 2.46008C15.926 2.46008 15.2792 3.68671 15.0012 4.38995C14.5546 5.51966 14.9975 6.23537 16.034 6.73443C17.0564 7.22668 17.838 7.19247 18.6348 6.36504C19.0707 5.91229 19.6936 4.49548 18.6649 4.49548C17.6833 4.49548 16.7353 4.36913 16.9084 5.58103C17.0443 6.53177 18.1871 6.53089 18.9061 6.53089C19.43 6.53089 19.9393 6.55946 20.0972 5.9278C20.2573 5.2874 20.4931 3.78009 19.66 3.61348C18.3408 3.34963 16.9354 3.2762 16.4486 4.73672C15.6743 7.05953 18.5764 7.99402 20.2932 8.56629" stroke="white" stroke-width="3" stroke-linecap="round"/>
</g>
<defs>
<clipPath id="clip0_403_3058">
<rect width="24" height="24" fill="white"/>
</clipPath>
</defs>
</svg>
